<mxfile host="app.diagrams.net" modified="2023-07-18T02:04:22.150Z" agent="Mozilla/5.0 (Windows NT 10.0; Win64; x64) AppleWebKit/537.36 (KHTML, like Gecko) Chrome/114.0.0.0 Safari/537.36 Edg/114.0.1823.79" etag="AMcCZyTOKQFmGze0bi-e" version="21.6.2" type="github">
  <diagram id="C5RBs43oDa-KdzZeNtuy" name="Page-1">
    <mxGraphModel dx="1056" dy="671" grid="0" gridSize="10" guides="1" tooltips="1" connect="1" arrows="1" fold="1" page="1" pageScale="1" pageWidth="827" pageHeight="1169" math="0" shadow="0">
      <root>
        <mxCell id="WIyWlLk6GJQsqaUBKTNV-0" />
        <mxCell id="WIyWlLk6GJQsqaUBKTNV-1" parent="WIyWlLk6GJQsqaUBKTNV-0" />
        <mxCell id="WNUjOJB1au-PY7QyQ_7n-0" style="edgeStyle=orthogonalEdgeStyle;rounded=0;orthogonalLoop=1;jettySize=auto;html=1;exitX=0.5;exitY=1;exitDx=0;exitDy=0;entryX=0.5;entryY=0;entryDx=0;entryDy=0;" edge="1" parent="WIyWlLk6GJQsqaUBKTNV-1" source="WNUjOJB1au-PY7QyQ_7n-1" target="WNUjOJB1au-PY7QyQ_7n-6">
          <mxGeometry relative="1" as="geometry" />
        </mxCell>
        <mxCell id="WNUjOJB1au-PY7QyQ_7n-1" value="申请人" style="rounded=1;whiteSpace=wrap;html=1;fontSize=12;glass=0;strokeWidth=1;shadow=0;" vertex="1" parent="WIyWlLk6GJQsqaUBKTNV-1">
          <mxGeometry x="220" y="120" width="120" height="40" as="geometry" />
        </mxCell>
        <mxCell id="WNUjOJB1au-PY7QyQ_7n-2" style="edgeStyle=orthogonalEdgeStyle;rounded=0;orthogonalLoop=1;jettySize=auto;html=1;exitX=0.5;exitY=1;exitDx=0;exitDy=0;entryX=0.5;entryY=0;entryDx=0;entryDy=0;" edge="1" parent="WIyWlLk6GJQsqaUBKTNV-1" source="WNUjOJB1au-PY7QyQ_7n-3" target="WNUjOJB1au-PY7QyQ_7n-1">
          <mxGeometry relative="1" as="geometry" />
        </mxCell>
        <mxCell id="WNUjOJB1au-PY7QyQ_7n-3" value="开始" style="ellipse;whiteSpace=wrap;html=1;aspect=fixed;fillColor=#dae8fc;strokeColor=#6c8ebf;" vertex="1" parent="WIyWlLk6GJQsqaUBKTNV-1">
          <mxGeometry x="255" y="40" width="50" height="50" as="geometry" />
        </mxCell>
        <mxCell id="WNUjOJB1au-PY7QyQ_7n-4" value="结束" style="ellipse;whiteSpace=wrap;html=1;aspect=fixed;fillColor=#d5e8d4;strokeColor=#82b366;" vertex="1" parent="WIyWlLk6GJQsqaUBKTNV-1">
          <mxGeometry x="255" y="576" width="50" height="50" as="geometry" />
        </mxCell>
        <mxCell id="WNUjOJB1au-PY7QyQ_7n-5" style="edgeStyle=orthogonalEdgeStyle;rounded=0;orthogonalLoop=1;jettySize=auto;html=1;exitX=0.5;exitY=1;exitDx=0;exitDy=0;entryX=0.5;entryY=0;entryDx=0;entryDy=0;" edge="1" parent="WIyWlLk6GJQsqaUBKTNV-1" source="WNUjOJB1au-PY7QyQ_7n-6" target="WNUjOJB1au-PY7QyQ_7n-14">
          <mxGeometry relative="1" as="geometry" />
        </mxCell>
        <mxCell id="WNUjOJB1au-PY7QyQ_7n-6" value="直属领导" style="rounded=1;whiteSpace=wrap;html=1;fontSize=12;glass=0;strokeWidth=1;shadow=0;" vertex="1" parent="WIyWlLk6GJQsqaUBKTNV-1">
          <mxGeometry x="220" y="180" width="120" height="40" as="geometry" />
        </mxCell>
        <mxCell id="WNUjOJB1au-PY7QyQ_7n-7" style="edgeStyle=orthogonalEdgeStyle;rounded=0;orthogonalLoop=1;jettySize=auto;html=1;exitX=0.5;exitY=1;exitDx=0;exitDy=0;entryX=0.5;entryY=0;entryDx=0;entryDy=0;" edge="1" parent="WIyWlLk6GJQsqaUBKTNV-1" source="WNUjOJB1au-PY7QyQ_7n-9" target="WNUjOJB1au-PY7QyQ_7n-12">
          <mxGeometry relative="1" as="geometry" />
        </mxCell>
        <mxCell id="WNUjOJB1au-PY7QyQ_7n-9" value="&lt;p class=&quot;MsoNormal&quot;&gt;采购经理&lt;/p&gt;" style="rounded=1;whiteSpace=wrap;html=1;fontSize=12;glass=0;strokeWidth=1;shadow=0;" vertex="1" parent="WIyWlLk6GJQsqaUBKTNV-1">
          <mxGeometry x="220" y="360" width="120" height="40" as="geometry" />
        </mxCell>
        <mxCell id="WNUjOJB1au-PY7QyQ_7n-11" style="edgeStyle=orthogonalEdgeStyle;rounded=0;orthogonalLoop=1;jettySize=auto;html=1;exitX=0.5;exitY=1;exitDx=0;exitDy=0;entryX=0.5;entryY=0;entryDx=0;entryDy=0;" edge="1" parent="WIyWlLk6GJQsqaUBKTNV-1" source="WNUjOJB1au-PY7QyQ_7n-12" target="WNUjOJB1au-PY7QyQ_7n-4">
          <mxGeometry relative="1" as="geometry" />
        </mxCell>
        <mxCell id="WNUjOJB1au-PY7QyQ_7n-17" style="edgeStyle=orthogonalEdgeStyle;rounded=0;orthogonalLoop=1;jettySize=auto;html=1;dashed=1;dashPattern=8 8;" edge="1" parent="WIyWlLk6GJQsqaUBKTNV-1" source="WNUjOJB1au-PY7QyQ_7n-12">
          <mxGeometry relative="1" as="geometry">
            <mxPoint x="380" y="450" as="targetPoint" />
          </mxGeometry>
        </mxCell>
        <mxCell id="WNUjOJB1au-PY7QyQ_7n-12" value="张总" style="rounded=1;whiteSpace=wrap;html=1;fontSize=12;glass=0;strokeWidth=1;shadow=0;dashed=1;" vertex="1" parent="WIyWlLk6GJQsqaUBKTNV-1">
          <mxGeometry x="220" y="430" width="120" height="40" as="geometry" />
        </mxCell>
        <mxCell id="WNUjOJB1au-PY7QyQ_7n-13" style="edgeStyle=orthogonalEdgeStyle;rounded=0;orthogonalLoop=1;jettySize=auto;html=1;exitX=0.5;exitY=1;exitDx=0;exitDy=0;entryX=0.5;entryY=0;entryDx=0;entryDy=0;" edge="1" parent="WIyWlLk6GJQsqaUBKTNV-1" source="WNUjOJB1au-PY7QyQ_7n-14" target="WNUjOJB1au-PY7QyQ_7n-16">
          <mxGeometry relative="1" as="geometry" />
        </mxCell>
        <mxCell id="WNUjOJB1au-PY7QyQ_7n-14" value="部门长" style="rounded=1;whiteSpace=wrap;html=1;fontSize=12;glass=0;strokeWidth=1;shadow=0;" vertex="1" parent="WIyWlLk6GJQsqaUBKTNV-1">
          <mxGeometry x="220" y="240" width="120" height="40" as="geometry" />
        </mxCell>
        <mxCell id="WNUjOJB1au-PY7QyQ_7n-15" style="edgeStyle=orthogonalEdgeStyle;rounded=0;orthogonalLoop=1;jettySize=auto;html=1;exitX=0.5;exitY=1;exitDx=0;exitDy=0;" edge="1" parent="WIyWlLk6GJQsqaUBKTNV-1" source="WNUjOJB1au-PY7QyQ_7n-16" target="WNUjOJB1au-PY7QyQ_7n-9">
          <mxGeometry relative="1" as="geometry" />
        </mxCell>
        <mxCell id="WNUjOJB1au-PY7QyQ_7n-16" value="&lt;p class=&quot;MsoNormal&quot;&gt;采购报价&lt;/p&gt;" style="rounded=1;whiteSpace=wrap;html=1;fontSize=12;glass=0;strokeWidth=1;shadow=0;" vertex="1" parent="WIyWlLk6GJQsqaUBKTNV-1">
          <mxGeometry x="220" y="300" width="120" height="40" as="geometry" />
        </mxCell>
        <mxCell id="WNUjOJB1au-PY7QyQ_7n-18" value="由采购报价节点判断是否经过张总" style="shape=document;whiteSpace=wrap;html=1;boundedLbl=1;" vertex="1" parent="WIyWlLk6GJQsqaUBKTNV-1">
          <mxGeometry x="390" y="410" width="120" height="80" as="geometry" />
        </mxCell>
        <mxCell id="WNUjOJB1au-PY7QyQ_7n-19" value="&lt;p class=&quot;MsoNormal&quot;&gt;料号维护&lt;/p&gt;" style="rounded=1;whiteSpace=wrap;html=1;fontSize=12;glass=0;strokeWidth=1;shadow=0;" vertex="1" parent="WIyWlLk6GJQsqaUBKTNV-1">
          <mxGeometry x="220" y="500" width="120" height="40" as="geometry" />
        </mxCell>
      </root>
    </mxGraphModel>
  </diagram>
</mxfile>
